<mxfile host="app.diagrams.net" agent="Mozilla/5.0 (Windows NT 10.0; Win64; x64) AppleWebKit/537.36 (KHTML, like Gecko) Chrome/135.0.0.0 Safari/537.36" version="26.2.13">
  <diagram name="Page-1" id="bd83a815-5ea8-2e97-e5ec-87c9f400f2fa">
    <mxGraphModel dx="1382" dy="775" grid="0" gridSize="10" guides="1" tooltips="1" connect="1" arrows="1" fold="1" page="1" pageScale="1.5" pageWidth="1169" pageHeight="826" background="none" math="0" shadow="0">
      <root>
        <mxCell id="0" style=";html=1;" />
        <mxCell id="1" style=";html=1;" parent="0" />
        <mxCell id="NC4P1antBF3fwvZOf2-F-3" value="d" style="childLayout=tableLayout;recursiveResize=0;shadow=1;fillColor=none;fontSize=26;fontFamily=Shantell Sans;fontSource=https%3A%2F%2Ffonts.googleapis.com%2Fcss%3Ffamily%3DShantell%2BSans;" vertex="1" parent="1">
          <mxGeometry x="396" y="309" width="1005" height="475" as="geometry" />
        </mxCell>
        <mxCell id="NC4P1antBF3fwvZOf2-F-4" style="shape=tableRow;horizontal=0;startSize=0;swimlaneHead=0;swimlaneBody=0;top=0;left=0;bottom=0;right=0;dropTarget=0;collapsible=0;recursiveResize=0;expand=0;fontStyle=0;fillColor=light-dark(#FFFFFF,#66B2FF);fontSize=26;fontFamily=Shantell Sans;fontSource=https%3A%2F%2Ffonts.googleapis.com%2Fcss%3Ffamily%3DShantell%2BSans;labelBackgroundColor=light-dark(default, #af4b4b);gradientColor=none;" vertex="1" parent="NC4P1antBF3fwvZOf2-F-3">
          <mxGeometry width="1005" height="98" as="geometry" />
        </mxCell>
        <mxCell id="NC4P1antBF3fwvZOf2-F-5" value="Column" style="connectable=0;recursiveResize=0;fillColor=light-dark(#FFFFFF,#66B2FF);align=center;fontStyle=1;html=1;fontSize=26;fontFamily=Shantell Sans;fontSource=https%3A%2F%2Ffonts.googleapis.com%2Fcss%3Ffamily%3DShantell%2BSans;labelBackgroundColor=light-dark(default, #ae5656);gradientColor=none;" vertex="1" parent="NC4P1antBF3fwvZOf2-F-4">
          <mxGeometry width="335" height="98" as="geometry">
            <mxRectangle width="335" height="98" as="alternateBounds" />
          </mxGeometry>
        </mxCell>
        <mxCell id="NC4P1antBF3fwvZOf2-F-6" value="Name" style="connectable=0;recursiveResize=0;fillColor=light-dark(#FFFFFF,#66B2FF);align=center;fontStyle=1;html=1;fontSize=26;fontFamily=Shantell Sans;fontSource=https%3A%2F%2Ffonts.googleapis.com%2Fcss%3Ffamily%3DShantell%2BSans;labelBackgroundColor=light-dark(default, #ae5656);gradientColor=none;" vertex="1" parent="NC4P1antBF3fwvZOf2-F-4">
          <mxGeometry x="335" width="335" height="98" as="geometry">
            <mxRectangle width="335" height="98" as="alternateBounds" />
          </mxGeometry>
        </mxCell>
        <mxCell id="NC4P1antBF3fwvZOf2-F-7" value="Allowable Values" style="connectable=0;recursiveResize=0;fillColor=light-dark(#FFFFFF,#66B2FF);align=center;fontStyle=1;html=1;fontSize=26;fontFamily=Shantell Sans;fontSource=https%3A%2F%2Ffonts.googleapis.com%2Fcss%3Ffamily%3DShantell%2BSans;labelBackgroundColor=light-dark(default, #ae5656);gradientColor=none;" vertex="1" parent="NC4P1antBF3fwvZOf2-F-4">
          <mxGeometry x="670" width="335" height="98" as="geometry">
            <mxRectangle width="335" height="98" as="alternateBounds" />
          </mxGeometry>
        </mxCell>
        <mxCell id="NC4P1antBF3fwvZOf2-F-8" value="" style="shape=tableRow;horizontal=0;startSize=0;swimlaneHead=0;swimlaneBody=0;top=0;left=0;bottom=0;right=0;dropTarget=0;collapsible=0;recursiveResize=0;expand=0;fontStyle=0;fillColor=none;fontSize=26;fontFamily=Shantell Sans;fontSource=https%3A%2F%2Ffonts.googleapis.com%2Fcss%3Ffamily%3DShantell%2BSans;" vertex="1" parent="NC4P1antBF3fwvZOf2-F-3">
          <mxGeometry y="98" width="1005" height="95" as="geometry" />
        </mxCell>
        <mxCell id="NC4P1antBF3fwvZOf2-F-9" value="Value 1" style="connectable=0;recursiveResize=0;fillColor=none;align=center;whiteSpace=wrap;html=1;fontSize=26;fontFamily=Shantell Sans;fontSource=https%3A%2F%2Ffonts.googleapis.com%2Fcss%3Ffamily%3DShantell%2BSans;" vertex="1" parent="NC4P1antBF3fwvZOf2-F-8">
          <mxGeometry width="335" height="95" as="geometry">
            <mxRectangle width="335" height="95" as="alternateBounds" />
          </mxGeometry>
        </mxCell>
        <mxCell id="NC4P1antBF3fwvZOf2-F-10" value="Value 2" style="connectable=0;recursiveResize=0;fillColor=none;align=center;whiteSpace=wrap;html=1;fontSize=26;fontFamily=Shantell Sans;fontSource=https%3A%2F%2Ffonts.googleapis.com%2Fcss%3Ffamily%3DShantell%2BSans;" vertex="1" parent="NC4P1antBF3fwvZOf2-F-8">
          <mxGeometry x="335" width="335" height="95" as="geometry">
            <mxRectangle width="335" height="95" as="alternateBounds" />
          </mxGeometry>
        </mxCell>
        <mxCell id="NC4P1antBF3fwvZOf2-F-11" value="Value 3" style="connectable=0;recursiveResize=0;fillColor=none;align=center;whiteSpace=wrap;html=1;fontSize=26;fontFamily=Shantell Sans;fontSource=https%3A%2F%2Ffonts.googleapis.com%2Fcss%3Ffamily%3DShantell%2BSans;" vertex="1" parent="NC4P1antBF3fwvZOf2-F-8">
          <mxGeometry x="670" width="335" height="95" as="geometry">
            <mxRectangle width="335" height="95" as="alternateBounds" />
          </mxGeometry>
        </mxCell>
        <mxCell id="NC4P1antBF3fwvZOf2-F-12" value="" style="shape=tableRow;horizontal=0;startSize=0;swimlaneHead=0;swimlaneBody=0;top=0;left=0;bottom=0;right=0;dropTarget=0;collapsible=0;recursiveResize=0;expand=0;fontStyle=1;fillColor=none;fontSize=26;fontFamily=Shantell Sans;fontSource=https%3A%2F%2Ffonts.googleapis.com%2Fcss%3Ffamily%3DShantell%2BSans;" vertex="1" parent="NC4P1antBF3fwvZOf2-F-3">
          <mxGeometry y="193" width="1005" height="92" as="geometry" />
        </mxCell>
        <mxCell id="NC4P1antBF3fwvZOf2-F-13" value="Value 4" style="connectable=0;recursiveResize=0;fillColor=none;whiteSpace=wrap;html=1;fontSize=26;fontFamily=Shantell Sans;fontSource=https%3A%2F%2Ffonts.googleapis.com%2Fcss%3Ffamily%3DShantell%2BSans;" vertex="1" parent="NC4P1antBF3fwvZOf2-F-12">
          <mxGeometry width="335" height="92" as="geometry">
            <mxRectangle width="335" height="92" as="alternateBounds" />
          </mxGeometry>
        </mxCell>
        <mxCell id="NC4P1antBF3fwvZOf2-F-14" value="" style="connectable=0;recursiveResize=0;fillColor=none;whiteSpace=wrap;html=1;fontSize=26;fontFamily=Shantell Sans;fontSource=https%3A%2F%2Ffonts.googleapis.com%2Fcss%3Ffamily%3DShantell%2BSans;" vertex="1" parent="NC4P1antBF3fwvZOf2-F-12">
          <mxGeometry x="335" width="335" height="92" as="geometry">
            <mxRectangle width="335" height="92" as="alternateBounds" />
          </mxGeometry>
        </mxCell>
        <mxCell id="NC4P1antBF3fwvZOf2-F-15" value="Value 6" style="connectable=0;recursiveResize=0;fillColor=none;whiteSpace=wrap;html=1;fontSize=26;fontFamily=Shantell Sans;fontSource=https%3A%2F%2Ffonts.googleapis.com%2Fcss%3Ffamily%3DShantell%2BSans;" vertex="1" parent="NC4P1antBF3fwvZOf2-F-12">
          <mxGeometry x="670" width="335" height="92" as="geometry">
            <mxRectangle width="335" height="92" as="alternateBounds" />
          </mxGeometry>
        </mxCell>
        <mxCell id="NC4P1antBF3fwvZOf2-F-16" value="" style="shape=tableRow;horizontal=0;startSize=0;swimlaneHead=0;swimlaneBody=0;top=0;left=0;bottom=0;right=0;dropTarget=0;collapsible=0;recursiveResize=0;expand=0;fontStyle=0;fillColor=none;fontSize=26;fontFamily=Shantell Sans;fontSource=https%3A%2F%2Ffonts.googleapis.com%2Fcss%3Ffamily%3DShantell%2BSans;" vertex="1" parent="NC4P1antBF3fwvZOf2-F-3">
          <mxGeometry y="285" width="1005" height="98" as="geometry" />
        </mxCell>
        <mxCell id="NC4P1antBF3fwvZOf2-F-17" value="Value 7" style="connectable=0;recursiveResize=0;fillColor=none;fontStyle=0;align=center;whiteSpace=wrap;html=1;fontSize=26;fontFamily=Shantell Sans;fontSource=https%3A%2F%2Ffonts.googleapis.com%2Fcss%3Ffamily%3DShantell%2BSans;" vertex="1" parent="NC4P1antBF3fwvZOf2-F-16">
          <mxGeometry width="335" height="98" as="geometry">
            <mxRectangle width="335" height="98" as="alternateBounds" />
          </mxGeometry>
        </mxCell>
        <mxCell id="NC4P1antBF3fwvZOf2-F-18" value="Value 8" style="connectable=0;recursiveResize=0;fillColor=none;fontStyle=0;align=center;whiteSpace=wrap;html=1;fontSize=26;fontFamily=Shantell Sans;fontSource=https%3A%2F%2Ffonts.googleapis.com%2Fcss%3Ffamily%3DShantell%2BSans;" vertex="1" parent="NC4P1antBF3fwvZOf2-F-16">
          <mxGeometry x="335" width="335" height="98" as="geometry">
            <mxRectangle width="335" height="98" as="alternateBounds" />
          </mxGeometry>
        </mxCell>
        <mxCell id="NC4P1antBF3fwvZOf2-F-19" value="Value 9" style="connectable=0;recursiveResize=0;fillColor=none;fontStyle=0;align=center;whiteSpace=wrap;html=1;fontSize=26;fontFamily=Shantell Sans;fontSource=https%3A%2F%2Ffonts.googleapis.com%2Fcss%3Ffamily%3DShantell%2BSans;" vertex="1" parent="NC4P1antBF3fwvZOf2-F-16">
          <mxGeometry x="670" width="335" height="98" as="geometry">
            <mxRectangle width="335" height="98" as="alternateBounds" />
          </mxGeometry>
        </mxCell>
        <mxCell id="NC4P1antBF3fwvZOf2-F-20" value="" style="shape=tableRow;horizontal=0;startSize=0;swimlaneHead=0;swimlaneBody=0;top=0;left=0;bottom=0;right=0;dropTarget=0;collapsible=0;recursiveResize=0;expand=0;fontStyle=1;fillColor=none;fontSize=26;fontFamily=Shantell Sans;fontSource=https%3A%2F%2Ffonts.googleapis.com%2Fcss%3Ffamily%3DShantell%2BSans;" vertex="1" parent="NC4P1antBF3fwvZOf2-F-3">
          <mxGeometry y="383" width="1005" height="92" as="geometry" />
        </mxCell>
        <mxCell id="NC4P1antBF3fwvZOf2-F-21" value="Value 10" style="connectable=0;recursiveResize=0;fillColor=none;whiteSpace=wrap;html=1;fontSize=26;fontFamily=Shantell Sans;fontSource=https%3A%2F%2Ffonts.googleapis.com%2Fcss%3Ffamily%3DShantell%2BSans;" vertex="1" parent="NC4P1antBF3fwvZOf2-F-20">
          <mxGeometry width="335" height="92" as="geometry">
            <mxRectangle width="335" height="92" as="alternateBounds" />
          </mxGeometry>
        </mxCell>
        <mxCell id="NC4P1antBF3fwvZOf2-F-22" value="Value 11" style="connectable=0;recursiveResize=0;fillColor=none;whiteSpace=wrap;html=1;fontSize=26;fontFamily=Shantell Sans;fontSource=https%3A%2F%2Ffonts.googleapis.com%2Fcss%3Ffamily%3DShantell%2BSans;" vertex="1" parent="NC4P1antBF3fwvZOf2-F-20">
          <mxGeometry x="335" width="335" height="92" as="geometry">
            <mxRectangle width="335" height="92" as="alternateBounds" />
          </mxGeometry>
        </mxCell>
        <mxCell id="NC4P1antBF3fwvZOf2-F-23" value="Value 12" style="connectable=0;recursiveResize=0;fillColor=none;whiteSpace=wrap;html=1;fontSize=26;fontFamily=Shantell Sans;fontSource=https%3A%2F%2Ffonts.googleapis.com%2Fcss%3Ffamily%3DShantell%2BSans;" vertex="1" parent="NC4P1antBF3fwvZOf2-F-20">
          <mxGeometry x="670" width="335" height="92" as="geometry">
            <mxRectangle width="335" height="92" as="alternateBounds" />
          </mxGeometry>
        </mxCell>
      </root>
    </mxGraphModel>
  </diagram>
</mxfile>
